<svg width="100%" height="auto" viewBox="0 0 608 398" fill="none" xmlns="http://www.w3.org/2000/svg">
<rect width="608" height="398" rx="8" fill="#F9FAFB"/>
<path d="M103.552 255.003V259.003H107.552H184.391V280.975V284.975H188.391H231.569H235.569V280.975V259.003H241.903C247.324 266.93 254.001 273.425 261.944 278.433C273.66 285.821 287.462 289.464 303.184 289.52L303.191 289.52H303.198C318.918 289.52 332.698 285.935 344.367 278.599L344.371 278.596C352.368 273.553 359.082 267.004 364.523 259.003H434.114V280.975V284.975H438.114H481.293H485.293V280.975V259.003H500.447H504.447V255.003V219.94V215.94H500.447H485.293V114.753V110.753H481.293H459.97H455.97H439.088H435.088H424.154H421.957L420.779 112.607L379.272 177.888C377.839 167.591 375.212 158.281 371.348 149.992C365.097 136.579 356.122 126.232 344.397 119.127C332.685 111.974 318.898 108.48 303.198 108.48C287.501 108.48 273.716 111.946 262.005 119.042L261.997 119.047C250.597 125.989 241.797 136.022 235.569 148.981V114.753V110.753H231.569H210.247H206.247H189.365H185.365H174.431H172.234L171.055 112.607L104.177 217.794L103.552 218.776V219.94V255.003ZM185.365 215.94H158.462L185.365 173.284V215.94ZM435.088 215.94H408.186L435.088 173.284V215.94ZM318.947 234.562L318.943 234.568C314.505 241.804 309.275 244.834 303.198 244.834C299.024 244.834 295.33 243.435 291.973 240.484C288.716 237.575 285.881 232.817 283.733 225.761C281.617 218.759 280.524 209.617 280.577 198.214C280.684 181.326 283.195 169.746 287.52 162.807C291.879 155.813 297.074 152.841 303.198 152.841C307.394 152.841 311.061 154.228 314.356 157.122L314.368 157.132L314.379 157.142C317.627 159.951 320.452 164.55 322.594 171.384C324.701 178.105 325.82 186.995 325.82 198.188L325.82 198.201C325.873 215.458 323.383 227.36 318.947 234.562Z" stroke="#E1EBFC" stroke-width="8"/>
<path d="M90 240.522V244.522H94H170.838V266.495V270.495H174.838H218.017H222.017V266.495V244.522H228.351C233.772 252.45 240.449 258.945 248.392 263.953C260.108 271.341 273.909 274.983 289.632 275.04L289.639 275.04H289.646C305.366 275.04 319.145 271.455 330.814 264.118L330.819 264.116C338.816 259.073 345.53 252.523 350.971 244.522H420.562V266.495V270.495H424.562H467.741H471.741V266.495V244.522H486.895H490.895V240.522V205.46V201.46H486.895H471.741V100.273V96.2726H467.741H446.418H442.418H425.536H421.536H410.602H408.405L407.226 98.1264L365.72 163.408C364.287 153.111 361.66 143.801 357.796 135.512C351.544 122.099 342.569 111.752 330.845 104.646C319.133 97.4943 305.346 94 289.646 94C273.949 94 260.164 97.4659 248.453 104.562L248.445 104.567C237.045 111.508 228.245 121.542 222.017 134.501V100.273V96.2726H218.017H196.694H192.694H175.812H171.812H160.878H158.682L157.503 98.1264L90.6245 203.314L90 204.296V205.46V240.522ZM171.812 201.46H144.91L171.812 158.804V201.46ZM421.536 201.46H394.634L421.536 158.804V201.46ZM305.395 220.082L305.391 220.088C300.953 227.324 295.722 230.354 289.646 230.354C285.471 230.354 281.778 228.954 278.421 226.004C275.164 223.095 272.329 218.337 270.181 211.281C268.065 204.278 266.972 195.137 267.024 183.734C267.131 166.846 269.642 155.266 273.967 148.327C278.327 141.333 283.522 138.361 289.646 138.361C293.842 138.361 297.509 139.748 300.804 142.642L300.816 142.652L300.827 142.662C304.075 145.471 306.9 150.07 309.042 156.903C311.148 163.624 312.268 172.515 312.268 183.708L312.268 183.721C312.321 200.978 309.831 212.879 305.395 220.082Z" stroke="#1A56DB" stroke-width="8"/>
</svg>
