<svg width="50" height="51" viewBox="0 0 50 51" fill="none" xmlns="http://www.w3.org/2000/svg">
<rect y="0.558838" width="50" height="50" rx="25" fill="#9061F9"/>
<path fill-rule="evenodd" clip-rule="evenodd" d="M14 25.5588C14 19.4837 18.9249 14.5588 25 14.5588C31.0751 14.5588 36 19.4837 36 25.5588C36 31.634 31.0751 36.5588 25 36.5588C18.9249 36.5588 14 31.634 14 25.5588ZM25 12.5588C17.8203 12.5588 12 18.3791 12 25.5588C12 32.7385 17.8203 38.5588 25 38.5588C32.1797 38.5588 38 32.7385 38 25.5588C38 18.3791 32.1797 12.5588 25 12.5588ZM22 23.0588C22 23.8873 21.3284 24.5588 20.5 24.5588C19.6716 24.5588 19 23.8873 19 23.0588C19 22.2304 19.6716 21.5588 20.5 21.5588C21.3284 21.5588 22 22.2304 22 23.0588ZM29.5 24.5588C30.3284 24.5588 31 23.8873 31 23.0588C31 22.2304 30.3284 21.5588 29.5 21.5588C28.6716 21.5588 28 22.2304 28 23.0588C28 23.8873 28.6716 24.5588 29.5 24.5588ZM20.665 28.0569C20.3877 27.5792 19.7757 27.4168 19.2981 27.694C18.8204 27.9713 18.658 28.5832 18.9352 29.0609C19.5518 30.1231 20.4365 31.0048 21.5009 31.6176C22.5652 32.2305 23.7719 32.5531 25.0001 32.5531C26.2283 32.5531 27.4349 32.2305 28.4993 31.6176C29.5637 31.0048 30.4484 30.1231 31.065 29.0609C31.3422 28.5832 31.1797 27.9713 30.7021 27.694C30.2244 27.4168 29.6125 27.5792 29.3352 28.0569C28.8945 28.8161 28.2621 29.4464 27.5013 29.8844C26.7405 30.3225 25.878 30.5531 25.0001 30.5531C24.1222 30.5531 23.2597 30.3225 22.4989 29.8844C21.7381 29.4464 21.1057 28.8161 20.665 28.0569Z" fill="white"/>
</svg>
