<svg width="50" height="51" viewBox="0 0 50 51" fill="none" xmlns="http://www.w3.org/2000/svg">
<rect y="0.558838" width="50" height="50" rx="25" fill="#F05252"/>
<path fill-rule="evenodd" clip-rule="evenodd" d="M29.4566 10.6692C29.8543 10.8733 30.0683 11.3166 29.9806 11.755L28.1474 20.9211L35.3511 23.6225C35.6638 23.7398 35.8973 24.0053 35.9736 24.3304C36.0499 24.6554 35.9589 24.9971 35.7311 25.2412L21.7311 40.2412C21.426 40.568 20.9412 40.6527 20.5434 40.4485C20.1457 40.2444 19.9318 39.8011 20.0194 39.3628L21.8527 30.1966L14.6489 27.4952C14.3363 27.378 14.1028 27.1124 14.0265 26.7874C13.9502 26.4623 14.0411 26.1206 14.269 25.8766L28.269 10.8766C28.574 10.5497 29.0589 10.4651 29.4566 10.6692ZM16.7516 26.1477L23.3511 28.6225C23.8102 28.7947 24.0767 29.2742 23.9806 29.755L22.671 36.3029L33.2484 24.97L26.6489 22.4952C26.1898 22.3231 25.9233 21.8435 26.0194 21.3628L27.329 14.8148L16.7516 26.1477Z" fill="white"/>
</svg>
