<svg width="50" height="51" viewBox="0 0 50 51" fill="none" xmlns="http://www.w3.org/2000/svg">
<rect y="0.558838" width="50" height="50" rx="25" fill="#1C64F2"/>
<path fill-rule="evenodd" clip-rule="evenodd" d="M25 15.5588C19.6674 15.5588 15.9267 17.9679 13.5429 20.3517C12.3539 21.5408 11.4965 22.7281 10.935 23.6198C10.6538 24.0664 10.4454 24.4412 10.3056 24.7081C10.2356 24.8416 10.1827 24.9484 10.1464 25.0239C10.1282 25.0617 10.1141 25.0917 10.1041 25.1133L10.0921 25.1395L10.0884 25.1477L10.0871 25.1506L10.0866 25.1518C10.0864 25.1523 10.0862 25.1527 11 25.5588L10.0862 25.1527C9.97127 25.4113 9.97127 25.7064 10.0862 25.965L11 25.5588C10.0862 25.965 10.0864 25.9654 10.0866 25.9659L10.0871 25.967L10.0884 25.9699L10.0921 25.9782L10.1041 26.0043C10.1141 26.026 10.1282 26.056 10.1464 26.0937C10.1827 26.1693 10.2356 26.276 10.3056 26.4096C10.4454 26.6765 10.6538 27.0513 10.935 27.4979C11.4965 28.3896 12.3539 29.5769 13.5429 30.7659C15.9267 33.1498 19.6674 35.5588 25 35.5588C30.3326 35.5588 34.0733 33.1498 36.4571 30.7659C37.6461 29.5769 38.5035 28.3896 39.065 27.4979C39.3462 27.0513 39.5546 26.6765 39.6944 26.4096C39.7644 26.276 39.8173 26.1693 39.8536 26.0937C39.8718 26.056 39.8859 26.026 39.8959 26.0043L39.9079 25.9782L39.9116 25.9699L39.9129 25.967L39.9134 25.9659C39.9136 25.9654 39.9138 25.965 39 25.5588L39.9138 25.965C40.0287 25.7064 40.0287 25.4113 39.9138 25.1527L39 25.5588C39.9138 25.1527 39.9136 25.1523 39.9134 25.1518L39.9129 25.1506L39.9116 25.1477L39.9079 25.1395L39.8959 25.1133C39.8859 25.0917 39.8718 25.0617 39.8536 25.0239C39.8173 24.9484 39.7644 24.8416 39.6944 24.7081C39.5546 24.4412 39.3462 24.0664 39.065 23.6198C38.5035 22.7281 37.6461 21.5408 36.4571 20.3517C34.0733 17.9679 30.3326 15.5588 25 15.5588ZM12.6275 26.4323C12.4047 26.0785 12.2358 25.7792 12.1181 25.5588C12.2358 25.3385 12.4047 25.0392 12.6275 24.6854C13.1285 23.8896 13.8961 22.8269 14.9571 21.7659C17.0733 19.6498 20.3326 17.5588 25 17.5588C29.6674 17.5588 32.9267 19.6498 35.0429 21.7659C36.1039 22.8269 36.8715 23.8896 37.3725 24.6854C37.5953 25.0392 37.7642 25.3385 37.8819 25.5588C37.7642 25.7792 37.5953 26.0785 37.3725 26.4323C36.8715 27.2281 36.1039 28.2908 35.0429 29.3517C32.9267 31.4679 29.6674 33.5588 25 33.5588C20.3326 33.5588 17.0733 31.4679 14.9571 29.3517C13.8961 28.2908 13.1285 27.2281 12.6275 26.4323ZM21 25.5588C21 23.3497 22.7909 21.5588 25 21.5588C27.2091 21.5588 29 23.3497 29 25.5588C29 27.768 27.2091 29.5588 25 29.5588C22.7909 29.5588 21 27.768 21 25.5588ZM25 19.5588C21.6863 19.5588 19 22.2451 19 25.5588C19 28.8725 21.6863 31.5588 25 31.5588C28.3137 31.5588 31 28.8725 31 25.5588C31 22.2451 28.3137 19.5588 25 19.5588Z" fill="white"/>
</svg>
