<svg width="50" height="51" viewBox="0 0 50 51" fill="none" xmlns="http://www.w3.org/2000/svg">
<rect y="0.558838" width="50" height="50" rx="25" fill="#16BDCA"/>
<path d="M38.1116 24.7214L26.9616 17.5464C26.81 17.4497 26.635 17.3958 26.4553 17.3901C26.2756 17.3845 26.0976 17.4275 25.9402 17.5145C25.7829 17.6015 25.6519 17.7293 25.561 17.8845C25.4702 18.0397 25.4229 18.2166 25.4241 18.3964V32.7214C25.4229 32.9012 25.4702 33.0781 25.561 33.2333C25.6519 33.3885 25.7829 33.5163 25.9402 33.6033C26.0976 33.6903 26.2756 33.7333 26.4553 33.7277C26.635 33.722 26.81 33.6681 26.9616 33.5714L38.1116 26.3964C38.2537 26.3076 38.3708 26.1842 38.452 26.0377C38.5333 25.8912 38.5759 25.7264 38.5759 25.5589C38.5759 25.3914 38.5333 25.2266 38.452 25.0801C38.3708 24.9336 38.2537 24.8102 38.1116 24.7214Z" stroke="white" stroke-width="2" stroke-linecap="round" stroke-linejoin="round"/>
<path d="M24.1116 24.7214L12.9616 17.5464C12.81 17.4497 12.635 17.3958 12.4553 17.3901C12.2756 17.3845 12.0976 17.4275 11.9402 17.5145C11.7829 17.6015 11.6519 17.7293 11.561 17.8845C11.4702 18.0397 11.4229 18.2166 11.4241 18.3964V32.7214C11.4229 32.9012 11.4702 33.0781 11.561 33.2333C11.6519 33.3885 11.7829 33.5163 11.9402 33.6033C12.0976 33.6903 12.2756 33.7333 12.4553 33.7277C12.635 33.722 12.81 33.6681 12.9616 33.5714L24.1116 26.3964C24.2537 26.3076 24.3708 26.1842 24.452 26.0377C24.5333 25.8912 24.5759 25.7264 24.5759 25.5589C24.5759 25.3914 24.5333 25.2266 24.452 25.0801C24.3708 24.9336 24.2537 24.8102 24.1116 24.7214Z" stroke="white" stroke-width="2" stroke-linecap="round" stroke-linejoin="round"/>
</svg>
