<svg width="170" height="50" viewBox="0 0 170 50" fill="none" xmlns="http://www.w3.org/2000/svg">
<g clip-path="url(#clip0_78_2276)">
<rect x="0.75" width="49.5588" height="49.5588" rx="24.7794" fill="#1C64F2"/>
<path d="M42.3619 45.6719C32.618 53.1744 19.0271 53.1144 9.34985 45.5261L16.4426 42.2013C16.7804 42.0425 17.1046 41.8563 17.4119 41.6445C17.5052 41.5804 17.5985 41.5133 17.6874 41.4434C18.4593 40.8527 19.0947 40.1025 19.5502 39.2438C19.8946 38.5841 20.1233 37.8702 20.2266 37.1332C20.2977 36.655 20.3338 36.1722 20.3344 35.6887C20.3344 34.855 20.2892 34.0212 20.2805 33.186C20.2747 32.7244 20.2698 32.2624 20.2659 31.7998L20.5574 31.9456L21.3154 32.3377L21.6667 32.3974L25.7305 33.0883L30.2666 33.8609L30.4036 38.5252L30.4488 40.0499L30.4707 40.7904V40.8355L32.2344 41.5527L42.3619 45.6719Z" fill="#F2A196"/>
<path d="M30.4532 40.4901C29.9522 40.5763 29.4368 40.4964 28.9854 40.2627L20.2922 33.1525C20.282 32.823 20.2732 33.1685 20.2688 32.8391C20.263 32.3775 20.2582 31.9154 20.2543 31.4529L20.5458 31.5986L21.3038 31.9907L21.655 32.0505L25.7189 32.7414L30.255 33.5139L30.392 38.1783L30.4372 39.703L30.459 40.4434V40.4915L30.4532 40.4901Z" fill="#E88870"/>
<path d="M42.3619 45.6719C32.618 53.1744 19.0271 53.1144 9.34985 45.5261L16.4426 42.2013C16.7804 42.0425 17.1046 41.8563 17.4119 41.6445C17.5052 41.5804 17.5985 41.5133 17.6874 41.4434C21.1201 43.8863 25.8048 45.427 29.857 43.6035C30.8219 43.1663 31.7082 42.4608 32.2329 41.5541L42.3619 45.6719Z" fill="#FF2609"/>
<path d="M39.7528 16.4787C39.7397 16.5647 39.7237 16.6492 39.7047 16.7338C39.6036 17.1671 39.4411 17.5838 39.2223 17.9713L39.2106 17.9917C39.1275 18.1374 39.0386 18.2832 38.9424 18.429C38.6871 18.8032 38.4087 19.161 38.1086 19.5003L37.9293 19.7C37.8084 19.8356 37.6859 19.9682 37.5635 20.0994C37.6559 20.0796 37.7508 20.0742 37.8448 20.0834C37.8797 20.0862 37.9144 20.0921 37.9483 20.1008C38.4133 20.1971 38.8112 20.63 38.9351 21.1212C38.9424 21.1532 38.9497 21.1868 38.9555 21.2188C39.0707 21.8718 38.8097 22.5307 38.4876 23.1137C37.9235 24.1457 37.1102 24.8323 36.3945 25.7287C35.8581 26.3963 35.5607 27.1863 34.9762 27.8247L34.9325 27.8728L34.8975 27.9078C33.3524 29.4995 30.9372 29.8771 28.9213 30.565C28.1925 30.8158 20.2893 33.0605 20.2893 33.5502C20.2893 33.4438 19.5153 32.6757 18.5402 31.7413C15.0419 28.4194 13.8919 23.2872 15.9733 18.8852C18.2108 14.148 23.292 10.7678 28.1313 9.14397C29.6443 8.63673 31.3613 8.29564 32.7956 8.99821C34.2299 9.70078 34.9442 11.8799 33.7547 12.944C34.5028 12.378 35.4333 12.1076 36.3682 12.1846C37.2318 12.2387 38.0462 12.6049 38.6596 13.2151C39.0024 13.5586 39.2782 13.963 39.473 14.4074C39.5531 14.5918 39.6199 14.7818 39.6727 14.9759C39.8039 15.4657 39.8312 15.9776 39.7528 16.4787Z" fill="#F2D4CF"/>
<path d="M39.7528 16.4788C39.7397 16.5648 39.7236 16.6494 39.7047 16.7339C39.6036 17.1673 39.4411 17.584 39.2222 17.9714L39.2105 17.9918C39.1275 18.1376 39.0385 18.2834 38.9423 18.4291C38.6871 18.8033 38.4086 19.1611 38.1086 19.5005L37.9293 19.7002C37.8083 19.8357 37.6859 19.9684 37.5634 20.0995C37.6558 20.0797 37.7507 20.0743 37.8448 20.0835C37.8797 20.0864 37.9143 20.0922 37.9482 20.101C38.4132 20.1972 38.8112 20.6301 38.9351 21.1213C38.9423 21.1534 38.9496 21.1869 38.9555 21.219C39.0706 21.872 38.8097 22.5308 38.4876 23.1139C37.9235 24.1459 37.1101 24.8324 36.3944 25.7288C35.858 26.3964 35.5607 27.1865 34.9762 27.8249L34.9324 27.873L34.8975 27.908C34.3114 27.1194 33.9379 26.1933 33.813 25.2187C33.5637 23.2013 33.7153 21.0033 33.6468 18.9611C33.6235 18.2484 33.5812 17.3986 33.8101 16.7223C33.8727 16.5548 33.9564 16.3961 34.0593 16.25C34.3276 15.8173 34.6334 15.409 34.9733 15.03C35.3587 14.6197 35.8453 14.318 36.3842 14.1554C36.6752 14.0727 36.9734 14.018 37.2748 13.9921C37.5971 13.9606 37.9219 13.9669 38.2427 14.0111C38.6706 14.0722 39.0842 14.2089 39.4642 14.4149C39.5443 14.5993 39.6111 14.7893 39.6639 14.9833C39.797 15.4702 39.8273 15.9796 39.7528 16.4788Z" fill="#DAAEA8"/>
<circle cx="18.8317" cy="27.717" r="2.47794" fill="#F2A196"/>
<circle cx="19.6188" cy="27.7168" r="2.21849" fill="#E88870"/>
<path d="M19.6509 25.3848L20.2922 33.6932L29.9766 39.3517C31.3646 39.8701 32.9194 39.2509 33.5711 37.9203C34.9646 35.0663 37.2005 30.5608 36.9061 28.8831C36.4688 26.4052 35.3027 25.5306 35.3027 25.5306L35.7881 22.6241C35.9703 21.5295 36.205 20.3867 35.9339 19.2862C35.6234 18.0254 34.6701 17.486 33.8859 16.543C31.8219 19.2017 28.4286 20.7045 25.4653 22.2277C23.9363 23.0206 19.6509 25.3848 19.6509 25.3848Z" fill="#F2A196"/>
<path d="M30.5145 24.6704C30.5028 24.72 32.4619 29.9353 32.4619 29.9353L29.8469 30.0636" stroke="#00214E" stroke-width="0.145761"/>
<path d="M24.3225 23.6603C25.6719 23.3817 27.0598 23.3427 28.4228 23.5452" stroke="#00214E" stroke-width="0.145761"/>
<path d="M32.9297 23.6765C33.7629 23.4839 34.6214 23.4244 35.4732 23.5001" stroke="#00214E" stroke-width="0.145761"/>
<path d="M27.1677 31.5212C27.208 31.4575 27.273 31.4134 27.3471 31.3996C27.4212 31.3858 27.4978 31.4035 27.5583 31.4484C27.8615 31.6612 28.4154 32.113 29.2025 32.269C30.2753 32.4833 31.2053 32.0533 31.4283 32.3302C31.5536 32.4862 31.4006 32.6771 31.1076 32.9133C30.4877 33.3774 29.7066 33.5714 28.9416 33.4511C27.9096 33.2573 27.1342 32.062 27.1342 31.6379C27.1354 31.5968 27.1469 31.5567 27.1677 31.5212V31.5212Z" fill="white"/>
<path d="M26.783 25.3323C27.6721 25.3396 27.6721 26.6981 26.783 26.7053H26.7422C25.853 26.6981 25.853 25.3396 26.7422 25.3323H26.783Z" fill="#00214E"/>
<path d="M34.1089 25.239C34.9339 25.239 34.9339 26.5071 34.1089 26.513H34.0725C33.246 26.513 33.246 25.2448 34.0725 25.239H34.1089Z" fill="#00214E"/>
</g>
<g clip-path="url(#clip1_78_2276)">
<rect x="30.4854" width="49.5588" height="49.5588" rx="24.7794" fill="#16BDCA"/>
<path d="M60.9814 39.9787C60.1554 40.9054 59.2416 41.7499 58.2528 42.5004C56.4876 43.8312 55.1801 43.6781 53.1293 43.5003C50.7461 43.2948 48.3818 42.9173 46.0059 42.6374C45.7042 42.6024 45.3806 42.5572 45.1591 42.3459C44.9817 42.1485 44.8626 41.9058 44.8151 41.6448C43.4133 36.5524 42.5678 31.323 42.2934 26.0483C42.031 21.005 44.6256 16.0666 49.5217 14.2154C54.6015 12.2914 61.2132 13.5697 64.2246 18.3813C68.4503 25.1402 66.1166 34.2416 60.9814 39.9787Z" fill="url(#paint0_linear_78_2276)"/>
<path d="M72.0972 44.2888C62.3534 51.7914 48.7624 51.7314 39.0852 44.1431L46.1779 40.8183C46.3951 40.7156 46.6067 40.6018 46.812 40.4772L46.9753 40.3752C47.0336 40.3387 47.0904 40.3008 47.1473 40.2615C48.0421 39.6441 48.7755 38.8208 49.2856 37.8608C49.8686 36.7603 50.061 35.5446 50.0698 34.3057C50.0698 33.4719 50.0246 32.6381 50.0158 31.8029C50.01 31.3414 50.0052 30.8793 50.0013 30.4167L50.2928 30.5625L51.0507 30.9546L55.4659 31.7053L60.0019 32.4778L60.139 37.1422L60.2075 39.4554L61.8793 40.1361L63.1912 40.6667L72.0972 44.2888Z" fill="#00214E"/>
<path d="M60.1361 37.1393C58.6697 37.3996 57.1612 37.2817 55.753 36.7967C52.6075 35.7399 50.4896 33.1906 50.2899 30.564L51.0479 30.9561L55.463 31.7067L59.9991 32.4793L60.1361 37.1393Z" fill="#F2A196"/>
<circle cx="46.3572" cy="25.7509" r="2.47794" fill="#F2A196"/>
<circle cx="47.2318" cy="25.4596" r="2.47794" fill="#E88870"/>
<path d="M63.1985 21.9978C64.9097 27.9274 61.2745 35.0973 59.0385 35.0973C55.9775 35.0973 48.5437 32.6515 46.8339 26.7219C45.1241 20.7923 47.4038 14.9284 51.9224 13.6238C56.441 12.3192 61.4858 16.0697 63.1985 21.9978Z" fill="#F2A196"/>
<path d="M54.8055 28.8557C55.5057 29.638 56.4659 30.1399 57.508 30.2681" stroke="#00214E" stroke-width="0.145761"/>
<path d="M63.9273 18.4631C63.3195 16.988 61.6884 16.2592 60.1885 15.7126C59.3781 15.4211 58.5472 15.1295 57.6843 15.1106C56.8861 15.1126 56.0962 15.2736 55.3609 15.5843C54.068 16.0916 52.7372 16.8495 51.7446 17.8247C51.2621 18.2984 50.8233 18.7954 50.3248 19.2692C50.0508 19.5315 49.787 19.8056 49.5363 20.0898C49.3453 20.307 49.115 20.7603 48.876 20.9061C53.3261 18.208 58.8504 17.2096 63.9273 18.4631Z" fill="#FF2609"/>
<path d="M57.8111 22.2759C57.8111 22.305 58.5093 23.5236 58.8781 24.8398C59.0485 25.5434 59.1274 26.266 59.1128 26.9898H57.1436" stroke="#00214E" stroke-width="0.145761"/>
<path d="M59.62 21.0356C60.6494 20.5095 61.8409 20.3969 62.9506 20.7207" stroke="#00214E" stroke-width="0.145761"/>
<path d="M50.9998 21.6157C52.4199 20.8924 54.0884 20.839 55.5519 21.47" stroke="#00214E" stroke-width="0.145761"/>
<path d="M53.5563 22.9072C54.4454 22.9072 54.4454 24.273 53.5563 24.2803H53.5155C52.6263 24.2803 52.6263 22.9145 53.5155 22.9072H53.5563Z" fill="#00214E"/>
<path d="M60.862 22.7046C61.6885 22.7046 61.6885 23.9727 60.862 23.9785H60.8255C60.0005 23.9785 60.0005 22.7104 60.8255 22.7046H60.862Z" fill="#00214E"/>
<path fill-rule="evenodd" clip-rule="evenodd" d="M59.1493 10.3704C63.7597 11.7522 66.2376 15.7402 67.1122 20.1815C67.7056 23.2575 67.5949 26.4278 66.7886 29.4549C65.9549 32.5013 64.5978 35.3728 63.1635 38.186C63.1414 38.2294 63.1193 38.2727 63.0974 38.3158C62.1967 40.0837 61.4548 41.5401 59.4627 42.3241C55.96 43.706 51.6907 42.9203 48.8352 40.4569C43.8035 36.1147 41.4276 27.165 42.4144 20.7136C43.5105 13.5246 52.2446 8.29617 59.1493 10.3704ZM53.8027 34.0433C55.2953 34.8508 57.7703 35.5927 59.4437 34.9179C59.5421 34.8728 59.6359 34.8182 59.7235 34.7546C59.9647 34.5894 60.1833 34.3934 60.3736 34.1716C61.6213 32.7868 62.3895 31.0435 62.8516 29.2157C63.1708 27.9135 63.366 26.5841 63.4346 25.2451C63.5672 22.9261 62.9055 20.7455 61.7569 18.7369C60.7511 16.9761 58.6055 15.2211 56.4658 15.7648C55.1539 16.1015 54.0505 16.9542 53.1133 17.9177C52.5848 18.4612 52.1238 19.0555 51.6637 19.6486C51.0082 20.4937 50.3545 21.3364 49.51 22.0267C49.1162 22.3615 48.6888 22.6546 48.2346 22.9013C48.1647 22.9363 47.2405 23.394 47.2303 23.3473C47.3278 23.846 47.4509 24.3393 47.5991 24.8253C48.5699 28.1954 50.1558 31.682 53.1847 33.6731C53.3849 33.8042 53.5909 33.9277 53.8027 34.0433Z" fill="url(#paint1_linear_78_2276)"/>
</g>
<g clip-path="url(#clip2_78_2276)">
<rect x="60.2206" width="49.5588" height="49.5588" rx="24.7794" fill="#FACA15"/>
<path d="M75.9423 27.508C75.7135 27.0533 75.4919 26.5926 75.2791 26.1306C74.8622 25.2269 74.4716 24.3013 74.2967 23.3218C73.7297 20.1617 75.3637 16.7159 77.709 14.6898C81.0469 11.8081 85.7754 10.7192 89.4529 8.1626C89.2491 9.41934 88.5774 10.5524 87.5726 11.3344C89.2941 10.0079 94.4234 12.1929 96.0268 13.0121C98.6853 14.3506 100.945 16.3655 102.577 18.8542C100.846 18.1505 98.9621 17.9094 97.1098 18.1545C98.5499 19.5495 100.048 21.0377 100.593 22.9647C98.0091 21.1018 93.8826 21.9983 92.3084 24.775C91.2983 26.5533 91.3128 28.7193 90.705 30.674C90.0637 32.7438 88.3335 34.0585 86.2987 34.6095C84.7653 35.0293 81.748 35.2188 80.3589 34.318C79.9376 34.0454 79.6301 33.6285 79.3473 33.2175C78.0775 31.3981 76.9396 29.49 75.9423 27.508V27.508Z" fill="#00214E"/>
<circle cx="77.5502" cy="28.0866" r="2.47794" fill="#845161"/>
<circle cx="78.4043" cy="27.9408" r="2.33218" fill="#69303A"/>
<path d="M101.104 46.0489C91.3598 53.5514 77.7689 53.4914 68.0917 45.9031L75.1844 42.5783C75.5222 42.4195 75.8464 42.2333 76.1537 42.0215C76.247 41.9573 76.3403 41.8903 76.4292 41.8203C77.2012 41.2297 77.8366 40.4794 78.292 39.6208C78.8751 38.5203 79.0675 37.3046 79.0762 36.0657C79.0762 35.6561 79.0675 35.245 79.0558 34.834C79.0442 34.4229 79.0267 33.9871 79.0223 33.5629C79.0165 33.1014 79.0116 32.6393 79.0077 32.1768L79.2993 32.3225L80.0572 32.7146L80.4085 32.7744L84.4723 33.4653L89.0084 34.2378L89.1454 38.9022L89.2023 40.8393L89.2125 41.1673V41.2154L90.9762 41.9326L101.104 46.0489Z" fill="#845161"/>
<path d="M89.1994 40.8291L88.975 40.8524C86.7813 41.0447 84.6139 40.264 83.0469 38.717L79.0559 33.8573C79.0428 33.4346 79.0268 33.9783 79.0224 33.5542C79.0166 33.0926 79.0117 32.6305 79.0078 32.168L79.2993 32.3137L80.0573 32.7058L80.4086 32.7656L84.4724 33.4565L89.0085 34.229L89.1455 38.8934L89.1994 40.8291Z" fill="#69303A"/>
<path d="M78.8125 23.4645C78.3579 23.8665 78.0656 24.4205 77.9904 25.0227C77.6857 27.8694 78.7396 31.2292 79.0326 34.0803L84.3412 37.9954C86.1052 39.3131 88.359 39.7896 90.5054 39.2985C91.361 39.0959 91.9033 38.9647 92.2895 38.2782C93.0358 36.9663 94.8681 32.4783 94.9876 29.3124C95.0211 28.4131 94.9992 27.0429 94.4454 26.2777C94.1757 25.906 94.0372 25.8972 94.1349 25.3725C94.2355 24.8244 94.3798 24.2822 94.5007 23.7385C94.6765 22.9521 94.7257 22.1427 94.6465 21.3407C94.5663 20.6119 94.5693 19.9647 94.492 19.2228C94.4541 18.8628 94.2938 17.2871 94.2938 17.2871C93.3682 18.6806 91.6978 19.4123 90.1527 19.8933C88.0508 20.5463 85.8629 20.8655 83.7319 21.4136C82.3195 21.7824 80.0354 22.3071 78.8125 23.4645Z" fill="#845161"/>
<path d="M85.1109 25.6611C86 25.6684 86 27.0284 85.1109 27.0357H85.0715C84.1809 27.0284 84.1809 25.6684 85.0715 25.6611H85.1109Z" fill="#00214E"/>
<path d="M92.7909 25.2458C93.6174 25.2458 93.6174 26.514 92.7909 26.5213H92.7545C91.9295 26.514 91.9295 25.2517 92.7545 25.2458H92.7909Z" fill="#00214E"/>
<path d="M85.7623 32.2131C86.4625 32.9955 87.4227 33.4973 88.4647 33.6256" stroke="#00214E" stroke-width="0.145761"/>
<path d="M83.041 24.0301C84.3903 23.7503 85.7783 23.7108 87.1413 23.9135" stroke="#00214E" stroke-width="0.145761"/>
<path d="M91.6482 24.0388C92.4814 23.8462 93.3399 23.7867 94.1917 23.8624" stroke="#00214E" stroke-width="0.145761"/>
<path d="M101.104 46.0488C91.3598 53.5514 77.7689 53.4914 68.0917 45.9031L75.1844 42.5783C75.5222 42.4195 75.8464 42.2333 76.1537 42.0215C76.247 41.9573 76.3403 41.8903 76.4292 41.8203C79.8619 44.2633 84.5467 45.804 88.5988 43.9805C89.5638 43.5432 90.45 42.8377 90.9747 41.9311L101.104 46.0488Z" fill="#FF2609"/>
<path d="M87.5595 29.76C87.342 29.8714 87.2381 30.1247 87.3148 30.3568C87.3916 30.5888 87.626 30.7303 87.8671 30.69" stroke="#00214E" stroke-width="0.145761"/>
<path d="M89.8057 25.5271C90.1686 26.9191 90.4703 28.2966 90.8158 29.6915C90.8563 29.8195 90.8712 29.9542 90.8595 30.088C90.7968 30.4888 90.3202 30.6535 89.9237 30.7395" stroke="#00214E" stroke-width="0.145761"/>
</g>
<g clip-path="url(#clip3_78_2276)">
<rect x="89.9559" width="49.5588" height="49.5588" rx="24.7794" fill="#9061F9"/>
<path d="M117.339 36.8339C115.823 36.8076 114.306 36.7348 112.73 36.6386C110.767 36.5176 108.381 37.003 106.506 36.2508C104.687 35.522 103.528 34.3661 102.333 32.8983C101.711 32.1389 100.75 31.7526 99.8187 31.4407C98.8873 31.1288 97.9151 30.8416 97.1658 30.2061C96.4166 29.5706 95.9604 28.4672 96.3889 27.5824C97.4428 25.4091 100.871 26.135 100.878 22.8554C100.878 21.7403 100.381 20.4911 101.043 19.5932C101.268 19.3215 101.542 19.095 101.851 18.9256C103.352 18.0001 105.288 18.0904 106.777 17.1765C108.459 16.1358 108.11 14.1665 109.608 12.7935C110.108 12.3574 110.649 11.9699 111.223 11.6361C115.147 9.20775 119.203 9.43513 123.224 11.7484C125.374 12.9888 127.241 15.2131 128.12 17.522C129.095 20.0932 127.171 22.9516 128.79 25.1876C129.158 25.6948 129.644 26.1058 130.042 26.5898C131.71 28.6159 129.143 29.8636 128.091 31.2396C127.247 32.3459 127.376 33.9638 126.566 35.0949C125.626 36.4068 123.796 36.6269 122.18 36.7275C120.52 36.8368 118.929 36.8616 117.339 36.8339Z" fill="#845161"/>
<path d="M133.972 44.3726C124.228 51.8751 110.637 51.8151 100.96 44.2268L108.053 40.902C108.27 40.7994 108.481 40.6855 108.687 40.5609L108.85 40.4589C108.908 40.4225 108.965 40.3846 109.022 40.3452C109.917 39.7279 110.65 38.9045 111.16 37.9445C111.743 36.844 111.936 35.6284 111.945 34.3894C111.945 33.7087 111.917 33.028 111.899 32.3488C111.899 32.1952 111.896 32.0422 111.891 31.8896C111.885 31.428 111.88 30.966 111.876 30.5034L112.168 30.6492L112.926 31.0413L117.341 31.7919L121.877 32.5645L122.009 37.0685V37.2245L122.078 39.5377L123.75 40.2184L125.062 40.749L133.972 44.3726Z" fill="#F2A196"/>
<path d="M122.007 36.0468C121.61 36.2916 121.235 36.4068 120.907 36.3718C118.752 36.14 114.546 34.4507 111.899 31.3241C111.899 31.1706 111.897 31.0175 111.891 30.8649C111.885 30.4034 111.88 29.9413 111.876 29.4788L112.168 29.6245L112.926 30.0166L117.341 30.7673L121.877 31.5398L122.007 36.0468Z" fill="#E88870"/>
<circle cx="108.232" cy="25.8346" r="2.47794" fill="#F2A196"/>
<circle cx="109.107" cy="25.5431" r="2.47794" fill="#E88870"/>
<path d="M125.073 22.0827C126.785 28.0138 123.148 35.1823 120.913 35.1823C117.852 35.1823 110.419 32.7364 108.709 26.8069C106.999 20.8773 109.271 15.0119 113.79 13.7073C118.309 12.4027 123.361 16.1532 125.073 22.0827Z" fill="#F2A196"/>
<path d="M115.867 23.3145C116.756 23.3145 116.756 24.6817 115.867 24.6875H115.826C114.937 24.6875 114.937 23.3217 115.826 23.3145H115.867Z" fill="#00214E"/>
<path d="M123.193 22.7546C124.018 22.7546 124.018 24.0228 123.193 24.03H123.155C122.33 24.0228 122.33 22.7619 123.155 22.7546H123.193Z" fill="#00214E"/>
<circle cx="115.864" cy="24.0126" r="2.76946" stroke="white" stroke-width="0.145761"/>
<circle cx="123.61" cy="23.5754" r="2.76946" stroke="white" stroke-width="0.145761"/>
<path d="M119.431 14.1986C118.804 16.9258 117.435 19.2405 114.933 20.9255C112.235 22.7941 109.384 23.6949 106.276 24.3159C106.355 22.405 106.145 19.7171 107.13 18.0117C108.248 16.1198 109.882 14.5849 111.84 13.5864C113.997 12.4713 117.336 11.3781 119.762 12.1521C119.695 12.8406 119.584 13.5241 119.431 14.1986V14.1986Z" fill="#845161"/>
<path d="M119.686 22.3596C119.674 22.4092 120.84 27.0735 120.84 27.0735H119.018" stroke="#00214E" stroke-width="0.145761"/>
<path d="M121.356 20.8742C122.387 20.3456 123.581 20.2319 124.693 20.5564" stroke="#00214E" stroke-width="0.145761"/>
<path d="M113.323 21.4094C114.743 20.6855 116.411 20.632 117.874 21.2636" stroke="#00214E" stroke-width="0.145761"/>
<path d="M118.634 24.0125L120.84 23.8245" stroke="white" stroke-width="0.145761"/>
<path d="M133.972 44.3727C124.228 51.8752 110.637 51.8152 100.96 44.2269L108.053 40.9021C108.39 40.7433 108.715 40.5571 109.022 40.3453C109.115 40.2812 109.209 40.2141 109.298 40.1441C110.069 39.5535 110.705 38.8033 111.16 37.9446C111.505 37.2849 111.733 36.571 111.837 35.834C111.94 35.9337 112.048 36.0281 112.16 36.1168C113.054 36.7777 114.024 37.3287 115.049 37.758C115.547 37.9657 116.056 38.1452 116.574 38.2959C118.134 38.7508 119.763 38.9231 121.384 38.8046C121.608 38.7871 121.834 38.7652 122.059 38.7492L122.081 39.4897V39.5319L123.844 40.2491L133.972 44.3727Z" fill="url(#paint2_linear_78_2276)"/>
<path d="M115.898 28.7192C115.938 28.6555 116.003 28.6114 116.077 28.5976C116.151 28.5838 116.228 28.6015 116.288 28.6464C116.591 28.8592 117.145 29.311 117.932 29.4685C119.005 29.6813 119.935 29.2527 120.158 29.5282C120.284 29.6842 120.131 29.8751 119.838 30.1113C119.218 30.5754 118.437 30.7694 117.672 30.6491C116.64 30.4553 115.864 29.26 115.864 28.8373C115.865 28.7958 115.877 28.7552 115.898 28.7192Z" fill="white"/>
</g>
<g clip-path="url(#clip4_78_2276)">
<rect x="119.691" width="49.5588" height="49.5588" rx="24.7794" fill="#F05252"/>
<path fill-rule="evenodd" clip-rule="evenodd" d="M150.467 12.0789C154.837 14.93 155.7 20.2357 155.76 25.0735C155.785 27.1188 155.766 29.1552 155.747 31.1888C155.709 35.1453 155.672 39.0917 155.962 43.0736C155.942 42.7894 151.334 42.1057 150.808 42.0824C149.702 42.0346 148.558 42.1385 147.426 42.2412C146.869 42.2918 146.315 42.3422 145.769 42.3739C144.818 42.4334 143.846 42.4572 142.869 42.4812C140.995 42.5271 139.102 42.5736 137.301 42.8724C136.951 42.9306 136.607 42.9894 136.265 43.0477C134.455 43.3566 132.725 43.652 130.81 43.7587C130.658 43.785 130.503 43.7543 130.373 43.6727C130.227 43.5531 130.227 43.3374 130.227 43.1494C130.227 40.8964 130.328 38.6444 130.429 36.3941C130.571 33.2156 130.713 30.0404 130.571 26.8708C130.444 24.1742 130.891 21.4814 131.883 18.9705C132.73 16.8053 134.059 14.8612 135.769 13.2858C136.233 12.8663 136.731 12.486 137.258 12.1489C141.175 9.63014 146.521 9.50478 150.467 12.0789ZM137.617 23.0066L139.671 24.4643L146.288 17.8482L145.456 17.322C144.663 18.6664 143.574 19.8128 142.273 20.6745C140.835 21.6619 139.268 22.4467 137.617 23.0066Z" fill="#00214E"/>
<path d="M161.303 44.1246C151.559 51.6271 137.968 51.5671 128.291 43.9788L135.384 40.654C135.601 40.5513 135.813 40.4375 136.018 40.3129L136.181 40.2109C136.239 40.1744 136.296 40.1365 136.353 40.0972C137.248 39.4798 137.981 38.6565 138.492 37.6965C139.075 36.596 139.267 35.3803 139.276 34.1414C139.276 33.4607 139.248 32.78 139.231 32.1007C139.231 31.9481 139.228 31.7951 139.222 31.6416C139.216 31.18 139.211 30.7179 139.207 30.2554H139.216L139.496 30.4011L140.254 30.7932L144.669 31.5439L149.205 32.3164L149.313 35.9605L149.338 36.8205V36.9764L149.406 39.2897L151.078 39.9704L152.39 40.5009L161.303 44.1246Z" fill="#F2A196"/>
<path d="M149.313 35.959C148.997 36.1756 148.621 36.2845 148.238 36.2695C146.084 36.0377 141.877 34.3483 139.233 31.2218C139.233 31.0692 139.23 30.9162 139.225 30.7626C139.225 30.5935 139.225 30.4245 139.225 30.2554L139.504 30.4011L140.262 30.7932L144.678 31.5439L149.214 32.3164L149.313 35.959Z" fill="#E88870"/>
<circle cx="135.126" cy="25.5866" r="2.47794" fill="#F2A196"/>
<circle cx="136" cy="25.2951" r="2.47794" fill="#E88870"/>
<path d="M152.404 21.8346C154.116 27.7642 150.479 34.9342 148.244 34.9342C145.183 34.9342 137.749 32.4883 136.04 26.5588C134.33 20.6292 136.61 14.7638 141.128 13.4607C145.647 12.1576 150.692 15.9036 152.404 21.8346Z" fill="#F2A196"/>
<path d="M143.942 29.0381C144.642 29.8204 145.602 30.3223 146.644 30.4505" stroke="#00214E" stroke-width="0.145761"/>
<path d="M146.947 22.4585C146.947 22.4876 147.645 23.7062 148.014 25.0224C148.185 25.7265 148.263 26.4496 148.249 27.1739H146.28" stroke="#00214E" stroke-width="0.145761"/>
<path d="M148.756 21.2181C149.786 20.6935 150.977 20.5809 152.087 20.9033" stroke="#00214E" stroke-width="0.145761"/>
<path d="M140.136 21.7981C141.556 21.0748 143.224 21.0213 144.688 21.6523" stroke="#00214E" stroke-width="0.145761"/>
<path d="M142.692 23.0896C143.581 23.0969 143.581 24.4554 142.692 24.4627H142.651C141.762 24.4627 141.762 23.0969 142.651 23.0896H142.692Z" fill="#00214E"/>
<path d="M149.998 22.887C150.824 22.887 150.824 24.1551 149.998 24.1609H149.961C149.136 24.1609 149.136 22.8928 149.961 22.887H149.998Z" fill="#00214E"/>
<path d="M147.094 11.904C147.026 12.5904 146.916 13.272 146.763 13.9447C146.503 15.1317 146.06 16.2714 145.452 17.3234C144.658 18.6678 143.57 19.8142 142.268 20.6759C140.831 21.6634 139.264 22.4481 137.612 23.0081C136.324 23.457 134.989 23.4964 133.61 23.7704C133.655 22.6583 133.61 21.5738 133.747 20.2824C133.849 19.3553 134.053 18.4706 134.464 17.7578C135.579 15.8718 137.206 14.3405 139.156 13.3412L139.174 13.3325C141.329 12.2232 144.669 11.1286 147.094 11.904Z" fill="#00214E"/>
<circle cx="135.49" cy="25.5806" r="0.876025" fill="#F2D4CF"/>
<path d="M133.829 27.69C133.775 27.6813 133.719 27.6711 133.664 27.6579C132.612 27.416 131.909 26.4223 132.032 25.3498C132.155 24.2772 133.064 23.468 134.143 23.4702V23.4702C134.205 23.47 134.26 23.5125 134.274 23.5729C134.289 23.6332 134.26 23.6957 134.205 23.7238C133.561 24.0705 133.141 24.7241 133.094 25.4536C133.046 26.183 133.378 26.8855 133.971 27.3125C134.049 27.3673 134.08 27.4677 134.046 27.5566C134.013 27.6455 133.923 27.7004 133.829 27.69V27.69Z" fill="#F2D4CF"/>
<path d="M133.782 23.7005C134.084 23.5853 134.418 23.589 134.718 23.7107C135.035 23.852 135.278 24.1217 135.385 24.4526C135.468 24.6863 135.504 24.9339 135.49 25.1814" stroke="#F2D4CF" stroke-width="0.291522"/>
<path d="M161.303 44.1246C151.559 51.6272 137.968 51.5671 128.291 43.9789L135.384 40.6541C135.722 40.4953 136.046 40.309 136.353 40.0972C136.446 40.0331 136.54 39.9661 136.629 39.8961C137.401 39.3055 138.036 38.5552 138.492 37.6966C138.836 37.0368 139.065 36.3229 139.168 35.5859C139.271 35.6857 139.379 35.7801 139.491 35.8687C140.385 36.5301 141.355 37.0817 142.38 37.5114C142.878 37.7191 143.387 37.8986 143.905 38.0493C145.465 38.5043 147.094 38.6765 148.715 38.558C148.94 38.5405 149.166 38.5187 149.39 38.5026L149.412 39.2431V39.2912L151.176 40.0083L161.303 44.1246Z" fill="#F2D4CF"/>
<path d="M145.449 17.3293C144.655 18.6737 143.567 19.8201 142.265 20.6818C140.828 21.6692 139.261 22.454 137.61 23.014L133.744 20.2882L131.883 18.9764C132.73 16.8111 134.059 14.8671 135.769 13.2917C136.233 12.8701 136.731 12.4879 137.258 12.1489L139.153 13.3471L145.449 17.3293Z" fill="url(#paint3_linear_78_2276)"/>
</g>
<defs>
<linearGradient id="paint0_linear_78_2276" x1="42.2744" y1="43.62" x2="66.414" y2="43.62" gradientUnits="userSpaceOnUse">
<stop stop-color="#16243F"/>
<stop offset="1" stop-color="#6878B1"/>
</linearGradient>
<linearGradient id="paint1_linear_78_2276" x1="42.1958" y1="43.0011" x2="67.4883" y2="43.0011" gradientUnits="userSpaceOnUse">
<stop stop-color="#16243F"/>
<stop offset="1" stop-color="#6878B1"/>
</linearGradient>
<linearGradient id="paint2_linear_78_2276" x1="100.96" y1="49.9587" x2="133.972" y2="49.9587" gradientUnits="userSpaceOnUse">
<stop stop-color="#16243F"/>
<stop offset="1" stop-color="#6878B1"/>
</linearGradient>
<linearGradient id="paint3_linear_78_2276" x1="140.981" y1="27.104" x2="146.842" y2="14.9428" gradientUnits="userSpaceOnUse">
<stop offset="0.29" stop-color="#00214E"/>
<stop offset="0.51" stop-color="#6878B1"/>
<stop offset="0.79" stop-color="#00214E"/>
</linearGradient>
<clipPath id="clip0_78_2276">
<rect x="0.75" width="49.5588" height="49.5588" rx="24.7794" fill="white"/>
</clipPath>
<clipPath id="clip1_78_2276">
<rect x="30.4854" width="49.5588" height="49.5588" rx="24.7794" fill="white"/>
</clipPath>
<clipPath id="clip2_78_2276">
<rect x="60.2206" width="49.5588" height="49.5588" rx="24.7794" fill="white"/>
</clipPath>
<clipPath id="clip3_78_2276">
<rect x="89.9559" width="49.5588" height="49.5588" rx="24.7794" fill="white"/>
</clipPath>
<clipPath id="clip4_78_2276">
<rect x="119.691" width="49.5588" height="49.5588" rx="24.7794" fill="white"/>
</clipPath>
</defs>
</svg>
