<svg width="24px" height="24px" viewBox="0 0 26 26" fill="none" xmlns="http://www.w3.org/2000/svg">
<path fill-rule="evenodd" clip-rule="evenodd" d="M2 13C2 6.92487 6.92487 2 13 2C19.0751 2 24 6.92487 24 13C24 19.0751 19.0751 24 13 24C6.92487 24 2 19.0751 2 13ZM13 0C5.8203 0 0 5.8203 0 13C0 20.1797 5.8203 26 13 26C20.1797 26 26 20.1797 26 13C26 5.8203 20.1797 0 13 0ZM19.1903 10.7236C19.5899 10.3423 19.6048 9.70934 19.2236 9.30973C18.8423 8.91012 18.2093 8.89522 17.8097 9.27645L11.1631 15.6174L8.19089 12.777C7.79161 12.3955 7.1586 12.4098 6.77704 12.8091C6.39547 13.2084 6.40983 13.8414 6.80912 14.223L10.4716 17.723C10.8579 18.0921 11.4662 18.0924 11.8528 17.7236L19.1903 10.7236Z" fill="#31C48D"/>
</svg>
